<svg width="24" height="24" viewBox="0 0 24 24" fill="none" xmlns="http://www.w3.org/2000/svg">
<path d="M10.8282 3.82817C11.9346 2.7217 13.4353 2.1001 15.0001 2.1001H18.0001C18.4972 2.1001 18.9001 2.50304 18.9001 3.0001V7.0001C18.9001 7.49715 18.4972 7.9001 18.0001 7.9001H15.0001C14.9736 7.9001 14.9481 7.91063 14.9294 7.92939C14.9106 7.94814 14.9001 7.97358 14.9001 8.0001V9.1001H18.0001C18.2772 9.1001 18.5389 9.22778 18.7095 9.44623C18.88 9.66467 18.9404 9.94951 18.8732 10.2184L17.8732 14.2184C17.7731 14.619 17.4131 14.9001 17.0001 14.9001H14.9001V21.0001C14.9001 21.4972 14.4972 21.9001 14.0001 21.9001H10.0001C9.50304 21.9001 9.1001 21.4972 9.1001 21.0001V14.9001H7.0001C6.50304 14.9001 6.1001 14.4972 6.1001 14.0001V10.0001C6.1001 9.50304 6.50304 9.1001 7.0001 9.1001H9.1001V8.0001C9.1001 6.43532 9.7217 4.93463 10.8282 3.82817ZM15.0001 3.9001C13.9127 3.9001 12.8699 4.33206 12.101 5.10096C11.3321 5.86986 10.9001 6.91271 10.9001 8.0001V10.0001C10.9001 10.4972 10.4972 10.9001 10.0001 10.9001H7.9001V13.1001H10.0001C10.4972 13.1001 10.9001 13.503 10.9001 14.0001V20.1001H13.1001V14.0001C13.1001 13.503 13.503 13.1001 14.0001 13.1001H16.2974L16.8474 10.9001H14.0001C13.503 10.9001 13.1001 10.4972 13.1001 10.0001V8.0001C13.1001 7.49619 13.3003 7.01291 13.6566 6.65659C14.0129 6.30028 14.4962 6.1001 15.0001 6.1001H17.1001V3.9001H15.0001Z" fill="black"/>
</svg>
