<svg width="24" height="24" viewBox="0 0 24 24" fill="none" xmlns="http://www.w3.org/2000/svg">
<path d="M8.0001 4.9001C7.17793 4.9001 6.38943 5.2267 5.80807 5.80807C5.2267 6.38943 4.9001 7.17793 4.9001 8.0001V16.0001C4.9001 16.8223 5.2267 17.6108 5.80807 18.1921C6.38943 18.7735 7.17793 19.1001 8.0001 19.1001H16.0001C16.8223 19.1001 17.6108 18.7735 18.1921 18.1921C18.7735 17.6108 19.1001 16.8223 19.1001 16.0001V8.0001C19.1001 7.17793 18.7735 6.38943 18.1921 5.80807C17.6108 5.2267 16.8223 4.9001 16.0001 4.9001H8.0001ZM4.53527 4.53527C5.4542 3.61635 6.70054 3.1001 8.0001 3.1001H16.0001C17.2997 3.1001 18.546 3.61635 19.4649 4.53527C20.3838 5.4542 20.9001 6.70054 20.9001 8.0001V16.0001C20.9001 17.2997 20.3838 18.546 19.4649 19.4649C18.546 20.3838 17.2997 20.9001 16.0001 20.9001H8.0001C6.70054 20.9001 5.4542 20.3838 4.53527 19.4649C3.61635 18.546 3.1001 17.2997 3.1001 16.0001V8.0001C3.1001 6.70054 3.61635 5.4542 4.53527 4.53527ZM9.24238 9.24238C9.97377 8.51099 10.9658 8.1001 12.0001 8.1001C13.0344 8.1001 14.0264 8.51099 14.7578 9.24238C15.4892 9.97377 15.9001 10.9658 15.9001 12.0001C15.9001 13.0344 15.4892 14.0264 14.7578 14.7578C14.0264 15.4892 13.0344 15.9001 12.0001 15.9001C10.9658 15.9001 9.97377 15.4892 9.24238 14.7578C8.51099 14.0264 8.1001 13.0344 8.1001 12.0001C8.1001 10.9658 8.51099 9.97377 9.24238 9.24238ZM12.0001 9.9001C11.4431 9.9001 10.909 10.1213 10.5152 10.5152C10.1213 10.909 9.9001 11.4431 9.9001 12.0001C9.9001 12.5571 10.1213 13.0912 10.5152 13.485C10.909 13.8788 11.4431 14.1001 12.0001 14.1001C12.5571 14.1001 13.0912 13.8788 13.485 13.485C13.8788 13.0912 14.1001 12.5571 14.1001 12.0001C14.1001 11.4431 13.8788 10.909 13.485 10.5152C13.0912 10.1213 12.5571 9.9001 12.0001 9.9001ZM17.4001 7.5001C17.4001 7.00304 16.9972 6.6001 16.5001 6.6001C16.003 6.6001 15.6001 7.00304 15.6001 7.5001V7.5101C15.6001 8.00715 16.003 8.4101 16.5001 8.4101C16.9972 8.4101 17.4001 8.00715 17.4001 7.5101V7.5001Z" fill="black"/>
</svg>
