<svg width="400" height="82" viewBox="0 0 400 82" fill="none" xmlns="http://www.w3.org/2000/svg">
<g clip-path="url(#clip0_1_21)">
<path d="M398 24.5996C398 12.471 385.853 2 370 2H30C14.1467 2 2.00026 12.471 2 24.5996V57.4004C2.00026 69.529 14.1467 80 30 80H370C385.853 80 398 69.529 398 57.4004V24.5996ZM402 57.4004C402 72.4438 387.283 84 370 84H30C12.7165 84 -1.99974 72.4438 -2 57.4004V24.5996C-1.99975 9.55617 12.7165 -2 30 -2H370C387.283 -2 402 9.55617 402 24.5996V57.4004Z" fill="#262626"/>
<path d="M326.986 57V22.0909H341.543C344.156 22.0909 346.344 22.4602 348.105 23.1989C349.878 23.9375 351.207 24.9716 352.094 26.3011C352.991 27.6307 353.44 29.1705 353.44 30.9205C353.44 32.25 353.162 33.4375 352.605 34.483C352.048 35.517 351.281 36.375 350.304 37.0568C349.327 37.7386 348.196 38.2159 346.912 38.4886V38.8295C348.321 38.8977 349.622 39.2784 350.815 39.9716C352.02 40.6648 352.986 41.6307 353.713 42.8693C354.44 44.0966 354.804 45.5511 354.804 47.233C354.804 49.108 354.327 50.7841 353.372 52.2614C352.418 53.7273 351.037 54.8864 349.23 55.7386C347.423 56.5795 345.23 57 342.651 57H326.986ZM335.423 50.1989H340.639C342.469 50.1989 343.815 49.8523 344.679 49.1591C345.554 48.4659 345.991 47.5 345.991 46.2614C345.991 45.3636 345.781 44.5909 345.361 43.9432C344.94 43.2841 344.344 42.7784 343.571 42.4261C342.798 42.0625 341.872 41.8807 340.793 41.8807H335.423V50.1989ZM335.423 36.4432H340.094C341.014 36.4432 341.832 36.2898 342.548 35.983C343.264 35.6761 343.821 35.233 344.219 34.6534C344.628 34.0739 344.832 33.375 344.832 32.5568C344.832 31.3864 344.418 30.4659 343.588 29.7955C342.758 29.125 341.639 28.7898 340.23 28.7898H335.423V36.4432Z" fill="#262626"/>
<path d="M305.057 57.5284C302.602 57.5284 300.483 57.0909 298.699 56.2159C296.926 55.3409 295.563 54.1648 294.608 52.6875C293.653 51.1988 293.176 49.5454 293.176 47.7273C293.176 46.3863 293.438 45.2045 293.96 44.1818C294.494 43.1477 295.227 42.1988 296.159 41.3352C297.102 40.4602 298.199 39.6023 299.449 38.7613L306.778 34.0738C307.608 33.5511 308.193 33 308.534 32.4204C308.886 31.8409 309.063 31.2613 309.063 30.6818C309.063 30.0568 308.818 29.4886 308.33 28.9773C307.852 28.4659 307.142 28.2159 306.199 28.2273C305.597 28.2273 305.074 28.3523 304.631 28.6023C304.188 28.8523 303.841 29.1875 303.591 29.6079C303.352 30.0284 303.233 30.5057 303.233 31.0398C303.233 31.7329 303.432 32.4432 303.83 33.1704C304.227 33.8977 304.761 34.6704 305.432 35.4886C306.114 36.3068 306.869 37.2102 307.699 38.1988L324.42 57H315.932L301.938 41.8125C301.142 40.9261 300.307 39.9318 299.432 38.8295C298.557 37.7273 297.818 36.5227 297.216 35.2159C296.614 33.8977 296.313 32.4659 296.313 30.9204C296.313 29.1818 296.722 27.6079 297.54 26.1988C298.358 24.7898 299.506 23.6704 300.983 22.8409C302.472 22 304.205 21.5795 306.182 21.5795C308.091 21.5795 309.739 21.9716 311.125 22.7557C312.511 23.5398 313.58 24.5795 314.33 25.875C315.08 27.1704 315.455 28.5909 315.455 30.1363C315.455 31.7727 315.051 33.2784 314.244 34.6534C313.438 36.017 312.295 37.2273 310.818 38.2841L303.642 43.4148C302.881 43.9602 302.284 44.5454 301.852 45.1704C301.42 45.7841 301.205 46.4545 301.205 47.1818C301.205 47.9318 301.381 48.5852 301.733 49.142C302.097 49.6988 302.608 50.1363 303.267 50.4545C303.926 50.7727 304.699 50.9318 305.585 50.9318C306.767 50.9318 307.949 50.6534 309.131 50.0966C310.313 49.5284 311.392 48.7329 312.369 47.7102C313.347 46.6761 314.131 45.4545 314.722 44.0454C315.313 42.625 315.608 41.0682 315.608 39.375H322.324C322.324 41.4659 322.102 43.4091 321.659 45.2045C321.216 46.9886 320.551 48.5909 319.665 50.0113C318.79 51.4204 317.705 52.5909 316.409 53.5227C316 53.75 315.602 53.9659 315.216 54.1704C314.83 54.375 314.432 54.5909 314.023 54.8182C312.682 55.7841 311.227 56.4773 309.659 56.8977C308.102 57.3182 306.568 57.5284 305.057 57.5284Z" fill="#262626"/>
<path d="M262.205 57V22.0909H276.761C279.375 22.0909 281.562 22.4602 283.324 23.1989C285.097 23.9375 286.426 24.9716 287.312 26.3011C288.21 27.6307 288.659 29.1705 288.659 30.9205C288.659 32.25 288.381 33.4375 287.824 34.483C287.267 35.517 286.5 36.375 285.523 37.0568C284.545 37.7386 283.415 38.2159 282.131 38.4886V38.8295C283.54 38.8977 284.841 39.2784 286.034 39.9716C287.239 40.6648 288.205 41.6307 288.932 42.8693C289.659 44.0966 290.023 45.5511 290.023 47.233C290.023 49.108 289.545 50.7841 288.591 52.2614C287.636 53.7273 286.256 54.8864 284.449 55.7386C282.642 56.5795 280.449 57 277.869 57H262.205ZM270.642 50.1989H275.858C277.687 50.1989 279.034 49.8523 279.898 49.1591C280.773 48.4659 281.21 47.5 281.21 46.2614C281.21 45.3636 281 44.5909 280.58 43.9432C280.159 43.2841 279.562 42.7784 278.79 42.4261C278.017 42.0625 277.091 41.8807 276.011 41.8807H270.642V50.1989ZM270.642 36.4432H275.312C276.233 36.4432 277.051 36.2898 277.767 35.983C278.483 35.6761 279.04 35.233 279.437 34.6534C279.847 34.0739 280.051 33.375 280.051 32.5568C280.051 31.3864 279.636 30.4659 278.807 29.7955C277.977 29.125 276.858 28.7898 275.449 28.7898H270.642V36.4432Z" fill="#262626"/>
<path d="M234.395 57.4943C231.645 57.4943 229.281 56.9318 227.304 55.8068C225.338 54.6704 223.821 53.0909 222.753 51.0682C221.696 49.0341 221.168 46.6761 221.168 43.9943C221.168 41.3011 221.696 38.9432 222.753 36.9204C223.821 34.8864 225.338 33.3068 227.304 32.1818C229.281 31.0454 231.645 30.4773 234.395 30.4773C237.145 30.4773 239.503 31.0454 241.469 32.1818C243.446 33.3068 244.963 34.8864 246.02 36.9204C247.088 38.9432 247.622 41.3011 247.622 43.9943C247.622 46.6761 247.088 49.0341 246.02 51.0682C244.963 53.0909 243.446 54.6704 241.469 55.8068C239.503 56.9318 237.145 57.4943 234.395 57.4943ZM234.446 51.2045C235.446 51.2045 236.293 50.8977 236.986 50.2841C237.679 49.6704 238.207 48.8182 238.571 47.7273C238.946 46.6364 239.134 45.375 239.134 43.9432C239.134 42.4886 238.946 41.2159 238.571 40.125C238.207 39.0341 237.679 38.1818 236.986 37.5682C236.293 36.9545 235.446 36.6477 234.446 36.6477C233.412 36.6477 232.537 36.9545 231.821 37.5682C231.116 38.1818 230.577 39.0341 230.202 40.125C229.838 41.2159 229.656 42.4886 229.656 43.9432C229.656 45.375 229.838 46.6364 230.202 47.7273C230.577 48.8182 231.116 49.6704 231.821 50.2841C232.537 50.8977 233.412 51.2045 234.446 51.2045Z" fill="#262626"/>
<path d="M201.033 57.375C199.101 57.375 197.345 56.875 195.766 55.875C194.186 54.875 192.925 53.375 191.982 51.375C191.038 49.375 190.567 46.892 190.567 43.9261C190.567 40.8466 191.055 38.3125 192.033 36.3239C193.01 34.3352 194.288 32.8636 195.868 31.9091C197.459 30.9545 199.169 30.4773 200.999 30.4773C202.374 30.4773 203.55 30.7159 204.527 31.1932C205.504 31.6591 206.311 32.2614 206.947 33C207.584 33.7386 208.067 34.5057 208.396 35.3011H208.567V22.0909H216.902V57H208.652V52.7557H208.396C208.044 53.5625 207.544 54.3182 206.896 55.0227C206.249 55.7273 205.436 56.2955 204.459 56.7273C203.493 57.1591 202.351 57.375 201.033 57.375ZM203.93 50.8807C204.942 50.8807 205.805 50.5966 206.521 50.0284C207.237 49.4489 207.788 48.6364 208.175 47.5909C208.561 46.5455 208.754 45.3182 208.754 43.9091C208.754 42.4773 208.561 41.2443 208.175 40.2102C207.8 39.1761 207.249 38.3807 206.521 37.8239C205.805 37.267 204.942 36.9886 203.93 36.9886C202.896 36.9886 202.021 37.2727 201.305 37.8409C200.59 38.4091 200.044 39.2102 199.669 40.2443C199.305 41.2784 199.124 42.5 199.124 43.9091C199.124 45.3182 199.311 46.5455 199.686 47.5909C200.061 48.6364 200.601 49.4489 201.305 50.0284C202.021 50.5966 202.896 50.8807 203.93 50.8807Z" fill="#262626"/>
<path d="M170.726 57.4432C169.055 57.4432 167.572 57.1648 166.277 56.6079C164.993 56.0398 163.976 55.1875 163.226 54.0511C162.487 52.9034 162.118 51.4659 162.118 49.7386C162.118 48.2841 162.374 47.0568 162.885 46.0568C163.396 45.0568 164.101 44.2443 164.999 43.6193C165.896 42.9943 166.93 42.5227 168.101 42.2045C169.271 41.875 170.521 41.6534 171.851 41.5398C173.339 41.4034 174.538 41.2614 175.447 41.1136C176.357 40.9545 177.016 40.7329 177.425 40.4489C177.845 40.1534 178.055 39.7386 178.055 39.2045V39.1193C178.055 38.2443 177.754 37.5682 177.152 37.0909C176.55 36.6136 175.737 36.375 174.714 36.375C173.612 36.375 172.726 36.6136 172.055 37.0909C171.385 37.5682 170.959 38.2273 170.777 39.0682L163.089 38.7954C163.317 37.2045 163.902 35.7841 164.845 34.5341C165.8 33.2727 167.107 32.2841 168.766 31.5682C170.436 30.8409 172.442 30.4773 174.783 30.4773C176.453 30.4773 177.993 30.6761 179.402 31.0739C180.811 31.4602 182.038 32.0284 183.084 32.7784C184.129 33.517 184.936 34.4261 185.504 35.5057C186.084 36.5852 186.374 37.8182 186.374 39.2045V57H178.533V53.3523H178.328C177.862 54.2386 177.266 54.9886 176.538 55.6023C175.822 56.2159 174.976 56.6761 173.999 56.9829C173.033 57.2898 171.942 57.4432 170.726 57.4432ZM173.3 51.9886C174.197 51.9886 175.004 51.8068 175.72 51.4432C176.447 51.0795 177.027 50.5795 177.459 49.9432C177.891 49.2954 178.107 48.5454 178.107 47.6932V45.2045C177.868 45.3295 177.578 45.4432 177.237 45.5454C176.908 45.6477 176.544 45.7443 176.146 45.8352C175.749 45.9261 175.339 46.0057 174.919 46.0739C174.499 46.142 174.095 46.2045 173.709 46.2614C172.925 46.3864 172.254 46.5795 171.697 46.8409C171.152 47.1023 170.732 47.4432 170.436 47.8636C170.152 48.2727 170.01 48.7614 170.01 49.3295C170.01 50.1932 170.317 50.8523 170.93 51.3068C171.555 51.7614 172.345 51.9886 173.3 51.9886Z" fill="#262626"/>
<path d="M146.926 57.4943C144.165 57.4943 141.795 56.9261 139.818 55.7898C137.852 54.6534 136.341 53.0739 135.284 51.0511C134.227 49.017 133.699 46.6648 133.699 43.9943C133.699 41.3125 134.227 38.9602 135.284 36.9375C136.352 34.9034 137.869 33.3182 139.835 32.1818C141.812 31.0454 144.17 30.4773 146.909 30.4773C149.33 30.4773 151.437 30.9148 153.233 31.7898C155.04 32.6648 156.449 33.9034 157.46 35.5057C158.483 37.0966 159.023 38.9659 159.08 41.1136H151.29C151.131 39.7727 150.676 38.7216 149.926 37.9602C149.187 37.1989 148.222 36.8182 147.028 36.8182C146.062 36.8182 145.216 37.0909 144.489 37.6364C143.761 38.1704 143.193 38.9659 142.784 40.0227C142.386 41.0682 142.187 42.3636 142.187 43.9091C142.187 45.4545 142.386 46.7614 142.784 47.8295C143.193 48.8864 143.761 49.6875 144.489 50.2329C145.216 50.767 146.062 51.0341 147.028 51.0341C147.801 51.0341 148.483 50.8693 149.074 50.5398C149.676 50.2102 150.17 49.7273 150.557 49.0909C150.943 48.4432 151.187 47.6591 151.29 46.7386H159.08C159 48.8977 158.46 50.7841 157.46 52.3977C156.472 54.0114 155.08 55.267 153.284 56.1648C151.5 57.0511 149.381 57.4943 146.926 57.4943Z" fill="#262626"/>
<path d="M115.861 57V30.8182H123.957V35.5909H124.23C124.707 33.8636 125.486 32.5796 126.565 31.7386C127.645 30.8864 128.901 30.4602 130.332 30.4602C130.719 30.4602 131.116 30.4886 131.526 30.5455C131.935 30.5909 132.315 30.6648 132.668 30.7671V38.0114C132.27 37.875 131.747 37.7671 131.099 37.6875C130.463 37.608 129.895 37.5682 129.395 37.5682C128.406 37.5682 127.514 37.7898 126.719 38.233C125.935 38.6648 125.315 39.2727 124.861 40.0568C124.418 40.8296 124.196 41.7386 124.196 42.7841V57H115.861Z" fill="#262626"/>
<path d="M99.1775 57.4943C96.4389 57.4943 94.0753 56.9545 92.0866 55.875C90.1094 54.7841 88.5866 53.2329 87.5185 51.2216C86.4616 49.1989 85.9332 46.7954 85.9332 44.0114C85.9332 41.3068 86.4673 38.9432 87.5355 36.9204C88.6037 34.8864 90.1094 33.3068 92.0525 32.1818C93.9957 31.0454 96.2855 30.4773 98.9219 30.4773C100.786 30.4773 102.49 30.767 104.036 31.3466C105.581 31.9261 106.916 32.7841 108.041 33.9204C109.166 35.0568 110.041 36.4602 110.666 38.1307C111.291 39.7898 111.604 41.6932 111.604 43.8409V45.9204H88.848V41.0795H103.848C103.837 40.1932 103.626 39.4034 103.217 38.7102C102.808 38.017 102.246 37.4773 101.53 37.0909C100.825 36.6932 100.013 36.4943 99.0923 36.4943C98.1605 36.4943 97.3253 36.7045 96.5866 37.125C95.848 37.5341 95.2628 38.0966 94.831 38.8125C94.3991 39.517 94.1719 40.3182 94.1491 41.2159V46.142C94.1491 47.2102 94.3594 48.1477 94.7798 48.9545C95.2003 49.75 95.7969 50.3693 96.5696 50.8125C97.3423 51.2557 98.2628 51.4773 99.331 51.4773C100.07 51.4773 100.74 51.375 101.342 51.1704C101.945 50.9659 102.462 50.6648 102.893 50.267C103.325 49.8693 103.649 49.3807 103.865 48.8011L111.518 49.0227C111.2 50.7386 110.501 52.2329 109.422 53.5057C108.354 54.767 106.95 55.75 105.212 56.4545C103.473 57.1477 101.462 57.4943 99.1775 57.4943Z" fill="#262626"/>
<path d="M42.642 22.0909H53.0909L61.9545 43.7045H62.3636L71.2273 22.0909H81.6761V57H73.4602V35.5568H73.1705L64.7841 56.7784H59.5341L51.1477 35.4375H50.858V57H42.642V22.0909Z" fill="#262626"/>
</g>
<defs>
<clipPath id="clip0_1_21">
<rect width="400" height="82" fill="white"/>
</clipPath>
</defs>
</svg>
