<svg width="24" height="24" viewBox="0 0 24 24" fill="none" xmlns="http://www.w3.org/2000/svg">
<path d="M12.0001 2.1001C10.7 2.1001 9.41265 2.35617 8.21153 2.85369C7.01041 3.35121 5.91904 4.08044 4.99974 4.99974C4.08044 5.91904 3.35121 7.01041 2.85369 8.21153C2.35617 9.41265 2.1001 10.7 2.1001 12.0001C2.1001 13.3002 2.35617 14.5875 2.85369 15.7887C3.35121 16.9898 4.08044 18.0812 4.99974 19.0005C5.91904 19.9198 7.01041 20.649 8.21153 21.1465C9.41266 21.644 10.7 21.9001 12.0001 21.9001C13.3002 21.9001 14.5875 21.644 15.7887 21.1465C16.9898 20.649 18.0812 19.9198 19.0005 19.0005C19.9198 18.0812 20.649 16.9898 21.1465 15.7887C21.644 14.5875 21.9001 13.3002 21.9001 12.0001C21.9001 10.7 21.644 9.41266 21.1465 8.21153C20.649 7.01041 19.9198 5.91904 19.0005 4.99974C18.0812 4.08044 16.9898 3.35121 15.7887 2.85369C14.5875 2.35617 13.3002 2.1001 12.0001 2.1001ZM8.90036 4.51667C9.8831 4.10961 10.9364 3.9001 12.0001 3.9001C13.0638 3.9001 14.1171 4.10961 15.0998 4.51667C16.0826 4.92374 16.9755 5.52038 17.7277 6.27253C18.4798 7.02469 19.0765 7.91763 19.4835 8.90036C19.8906 9.8831 20.1001 10.9364 20.1001 12.0001C20.1001 13.0638 19.8906 14.1171 19.4835 15.0998C19.0765 16.0826 18.4798 16.9755 17.7277 17.7277C16.9755 18.4798 16.0826 19.0765 15.0998 19.4835C14.1171 19.8906 13.0638 20.1001 12.0001 20.1001C10.9364 20.1001 9.8831 19.8906 8.90036 19.4835C7.91763 19.0765 7.02469 18.4798 6.27253 17.7277C5.52038 16.9755 4.92374 16.0826 4.51667 15.0998C4.10961 14.1171 3.9001 13.0638 3.9001 12.0001C3.9001 10.9364 4.10961 9.8831 4.51667 8.90036C4.92374 7.91762 5.52038 7.02469 6.27253 6.27253C7.02469 5.52038 7.91762 4.92374 8.90036 4.51667ZM8.45697 12.7484C10.5935 11.4896 13.2008 11.9005 14.9601 13.22C15.3577 13.5182 15.9219 13.4376 16.2201 13.04C16.5183 12.6424 16.4377 12.0782 16.0401 11.78C13.7994 10.0995 10.4067 9.5104 7.54322 11.1976C7.11497 11.4499 6.97236 12.0016 7.22468 12.4299C7.47701 12.8581 8.02872 13.0007 8.45697 12.7484ZM11.6277 15.2105C10.8728 15.1602 10.0723 15.3669 9.49933 15.7489C9.08575 16.0246 8.52697 15.9128 8.25125 15.4992C7.97554 15.0857 8.08729 14.5269 8.50087 14.2512C9.42791 13.6331 10.6274 13.3398 11.7475 13.4145C12.8658 13.4891 14.0462 13.9467 14.7489 15.0008C15.0247 15.4144 14.9129 15.9731 14.4993 16.2489C14.0858 16.5246 13.527 16.4128 13.2513 15.9992C12.954 15.5533 12.3844 15.261 11.6277 15.2105ZM7.40259 9.80504C9.23198 8.89034 12.8787 7.98551 16.5231 10.2632C16.9446 10.5267 17.4999 10.3986 17.7633 9.97705C18.0267 9.55555 17.8986 9.00029 17.4771 8.73685C13.1215 6.0146 8.76821 7.10976 6.59761 8.19507C6.15302 8.41736 5.97282 8.95796 6.19511 9.40254C6.4174 9.84712 6.95801 10.0273 7.40259 9.80504Z" fill="black"/>
</svg>
