<svg width="24" height="24" viewBox="0 0 24 24" fill="none" xmlns="http://www.w3.org/2000/svg">
<path d="M10.4631 8.22835C10.1851 8.06153 9.83883 8.05716 9.55667 8.21692C9.27451 8.37667 9.1001 8.67585 9.1001 9.0001V15.0001C9.1001 15.3243 9.27451 15.6235 9.55667 15.7833C9.83883 15.943 10.1851 15.9387 10.4631 15.7718L15.4631 12.7718C15.7342 12.6092 15.9001 12.3162 15.9001 12.0001C15.9001 11.684 15.7342 11.391 15.4631 11.2284L10.4631 8.22835ZM13.2508 12.0001L10.9001 13.4105V10.5897L13.2508 12.0001Z" fill="black"/>
<path d="M6.0001 3.1001C4.70054 3.1001 3.4542 3.61635 2.53527 4.53527C1.61635 5.4542 1.1001 6.70054 1.1001 8.0001V16.0001C1.1001 17.2997 1.61635 18.546 2.53527 19.4649C3.4542 20.3838 4.70054 20.9001 6.0001 20.9001H18.0001C19.2997 20.9001 20.546 20.3838 21.4649 19.4649C22.3838 18.546 22.9001 17.2997 22.9001 16.0001V8.0001C22.9001 6.70054 22.3838 5.4542 21.4649 4.53527C20.546 3.61635 19.2997 3.1001 18.0001 3.1001H6.0001ZM3.80807 5.80807C4.38943 5.2267 5.17793 4.9001 6.0001 4.9001H18.0001C18.8223 4.9001 19.6108 5.2267 20.1921 5.80807C20.7735 6.38943 21.1001 7.17793 21.1001 8.0001V16.0001C21.1001 16.8223 20.7735 17.6108 20.1921 18.1921C19.6108 18.7735 18.8223 19.1001 18.0001 19.1001H6.0001C5.17793 19.1001 4.38943 18.7735 3.80807 18.1921C3.2267 17.6108 2.9001 16.8223 2.9001 16.0001V8.0001C2.9001 7.17793 3.2267 6.38943 3.80807 5.80807Z" fill="black"/>
</svg>
